<svg width="175" height="40" viewBox="0 0 175 40" fill="none" xmlns="http://www.w3.org/2000/svg">
<path d="M13.4155 0L15.2596 3.20737C15.6284 3.87097 15.6284 4.68203 15.2596 5.34562L4.269 24.4055L9.46925 33.4009C10.2806 34.8018 11.7928 35.6866 13.4155 35.6866C15.0383 35.6866 16.5504 34.8018 17.3618 33.4009L22.5621 24.4055L21.1975 21.9724L15.2965 32.1843C14.9277 32.8479 14.19 33.2535 13.4524 33.2535C12.6779 33.2535 11.9772 32.8479 11.6084 32.1843L7.07197 24.4055L17.2881 6.70968L19.1321 9.91705C19.5009 10.5806 19.5009 11.3917 19.1321 12.0553L12.014 24.4055L13.4155 26.8387L21.1606 13.4194L26.2502 22.2304C27.0247 23.5945 27.0247 25.2535 26.2502 26.6175L21.0868 35.576C20.3123 36.9401 17.8413 40 13.4155 40C8.98979 40 6.55563 36.9401 5.74425 35.576L0.580879 26.6175C-0.193626 25.2535 -0.193626 23.5945 0.580879 22.2304L13.4155 0Z" fill="#ED5153"/>
<path d="M37.4252 9.54883H41.0026V30.6733H37.4252V9.54883Z" fill="#040707"/>
<path d="M45.7974 13.4196C46.9584 13.4196 47.8996 12.4787 47.8996 11.3182C47.8996 10.1576 46.9584 9.2168 45.7974 9.2168C44.6364 9.2168 43.6952 10.1576 43.6952 11.3182C43.6952 12.4787 44.6364 13.4196 45.7974 13.4196Z" fill="#040707"/>
<path d="M43.9899 15.9992H47.6043V30.672H43.9899V15.9992ZM57.0828 15.6306C52.9889 15.6306 49.6696 18.5061 49.6696 23.0776C49.6696 27.649 52.5464 30.4508 57.1196 30.4508C58.9268 30.4508 60.8446 31.3725 60.8446 33.4001C60.8446 35.4278 59.2219 36.5707 57.1196 36.5707C55.0174 36.5707 53.284 35.3172 53.284 33.4001H49.6696C49.6696 37.3448 52.8414 39.9624 57.1196 39.9624C61.361 39.9624 64.459 37.4554 64.459 33.4001C64.459 31.52 63.8689 29.7504 61.4347 28.5338C63.832 27.4278 64.5328 24.884 64.5328 23.0407C64.5328 18.5061 61.1766 15.6306 57.0828 15.6306ZM57.1196 27.4647C55.0174 27.4647 53.284 25.6582 53.284 23.0776C53.284 20.5338 55.0174 18.6536 57.1196 18.6536C59.2219 18.6536 60.9184 20.5707 60.9184 23.0776C60.9184 25.6213 59.185 27.4647 57.1196 27.4647ZM75.007 15.6306C73.3474 15.6306 71.7615 16.1467 70.4337 17.8057V9.51074H66.8194V30.6352H70.4337V23.1882C70.4337 21.013 71.909 19.2066 74.0481 19.2066C75.9659 19.2066 77.3674 20.3495 77.3674 23.0038V30.6352H80.9818V22.7458C81.0187 18.4324 79.1746 15.6306 75.007 15.6306ZM89.7964 28.1651C89.3538 28.1651 88.985 28.0177 88.7637 27.7227C88.5424 27.4278 88.4318 26.9854 88.4318 26.3218V19.096H91.3454L91.6773 15.9624H88.4686V11.9439L84.8174 12.3495V15.9992H82.0513V19.1329H84.8174V26.4324C84.8174 27.9439 85.1862 29.0868 85.887 29.861C86.5877 30.6352 87.6573 31.0407 89.0219 31.0407C89.6488 31.0407 90.2389 30.967 90.8659 30.7826C91.4929 30.5983 92.0461 30.3402 92.5256 30.0084L91.2716 27.6859C90.7922 28.0177 90.2758 28.1651 89.7964 28.1651ZM104.659 22.7826C103.184 21.861 101.451 21.7504 99.7543 21.6398C98.7585 21.566 97.2464 21.3448 97.2464 20.0545C97.2464 19.1329 98.2053 18.6167 99.9387 18.6167C101.34 18.6167 102.557 18.9485 103.59 19.9071L105.618 17.5476C103.922 16.073 102.188 15.6306 99.8649 15.6306C97.1726 15.6306 93.632 16.8103 93.632 20.202C93.632 21.6029 94.3696 22.8932 95.5867 23.6306C96.9513 24.4785 98.7216 24.5891 100.234 24.7734C101.266 24.884 102.963 25.1421 102.668 26.5799C102.483 27.5753 101.266 27.8702 100.418 27.9071C99.4961 27.9439 98.5741 27.8702 97.6521 27.649C96.6932 27.3909 95.9186 26.9485 95.0704 26.3955L93.2263 28.7181C93.337 28.7918 93.4476 28.9024 93.4476 28.9024C95.808 30.8564 99.0904 31.4831 102.078 30.8195C104.328 30.3034 106.245 28.6812 106.245 26.2481C106.319 24.884 105.877 23.52 104.659 22.7826ZM116.572 15.6306C114.912 15.6306 112.958 16.331 111.814 17.9531L111.704 15.9624H108.2V37.0868L111.814 36.6813V28.9393C112.847 30.5246 115.097 31.0407 116.646 31.0407C121.33 31.0407 124.059 27.5384 124.059 23.2988C124.059 18.9854 121.072 15.6306 116.572 15.6306ZM116.277 27.9071C113.806 27.9071 112.146 25.6582 112.146 23.3725C112.146 21.0868 113.695 18.6536 116.277 18.6536C118.896 18.6536 120.408 21.1236 120.408 23.3725C120.445 25.6582 118.748 27.9071 116.277 27.9071ZM128.78 24.626C129.185 26.3587 130.771 27.8702 133.353 27.8702C134.681 27.8702 136.451 27.2066 137.299 26.3587L139.623 28.6444C138.074 30.2296 135.529 31.0038 133.316 31.0038C128.743 31.0038 125.424 27.9808 125.424 23.2988C125.424 18.8748 128.854 15.6306 133.058 15.6306C137.484 15.6306 141.172 18.6536 140.803 24.626H128.78ZM137.299 21.861C136.894 20.1283 135.16 18.6167 133.058 18.6167C131.103 18.6167 129.296 19.9439 128.78 21.861H137.299ZM145.524 24.626C145.93 26.3587 147.515 27.8702 150.097 27.8702C151.425 27.8702 153.195 27.2066 154.043 26.3587L156.367 28.6444C154.818 30.2296 152.273 31.0038 150.06 31.0038C145.487 31.0038 142.168 27.9808 142.168 23.2988C142.168 18.8748 145.598 15.6306 149.802 15.6306C154.228 15.6306 157.916 18.6536 157.547 24.626H145.524ZM154.08 21.861C153.675 20.1283 151.941 18.6167 149.839 18.6167C147.884 18.6167 146.077 19.9439 145.561 21.861H154.08ZM166.288 31.0407C167.948 31.0407 169.902 30.3402 171.046 28.7181L171.156 30.672H174.66V9.54761H171.046V17.7319C170.013 16.1467 167.726 15.6674 166.177 15.6674C161.493 15.6674 158.801 19.1329 158.801 23.4094C158.801 27.6859 161.788 31.0407 166.288 31.0407ZM166.546 18.7642C169.017 18.7642 170.677 21.013 170.677 23.2988C170.677 25.5845 169.128 28.0177 166.546 28.0177C163.928 28.0177 162.415 25.5476 162.415 23.2988C162.415 21.013 164.075 18.7642 166.546 18.7642Z" fill="#040707"/>
</svg>
