<svg width="141" height="40" viewBox="0 0 141 40" fill="none" xmlns="http://www.w3.org/2000/svg">
<path d="M124.131 18.4269H119.348V26.3504C119.348 28.6061 120.535 29.026 122.073 29.026C122.609 29.026 123.186 28.9488 123.77 28.8707L124.131 32.4214C122.878 32.6432 121.204 32.8326 120.119 32.8326C116.821 32.8326 113.897 31.6812 113.897 27.6364V18.4269H111.119V14.9276H113.897V11.0699L119.348 9.52637V14.9276H124.131V18.4269ZM109.461 32.4732H104.009V21.2047C104.009 19.5482 103.313 18.6327 101.438 18.6327C100.028 18.6327 99.1155 19.3108 98.0958 20.1255V32.4735H92.6438V14.9283H97.9415V16.4718C99.7175 15.2773 101.753 14.5171 103.958 14.5171C107.436 14.5171 109.462 16.6789 109.462 19.9711V32.4732H109.461Z" fill="#4F72B7"/>
<path d="M81.6438 0C78.8847 4.67607 80.0834 8.90856 77.3859 11.6068C75.2198 13.7757 73.2094 13.7056 70.8461 13.7056C70.0253 13.7056 68.4273 13.7767 67.7602 14.2617C67.3718 13.0268 67.2045 11.6676 67.2045 10.3723C67.2045 8.14564 67.7044 6.16785 69.3031 4.56852C72.3663 1.5048 77.9137 0.530438 81.6438 0Z" fill="#21B575"/>
<path d="M52.1677 30.3281H46.7161V19.0597C46.7161 17.4032 46.0203 16.4876 44.1451 16.4876C42.7364 16.4876 41.8212 17.1664 40.8024 17.9804V30.3285H35.3502V12.7833H40.6478V14.3268C42.4249 13.1323 44.4613 12.3721 46.6651 12.3721C50.141 12.3721 52.1677 14.5339 52.1677 17.8261V30.3281ZM34.2259 12.7833L25.4831 34.0325C24.1401 37.2967 21.4409 39.6917 17.7686 39.6917C15.9302 39.6917 14.9562 39.4522 13.7571 39.1776L14.5284 35.6783C15.4964 35.8947 16.2247 35.9869 16.8938 35.9869C19.0872 35.9869 20.2515 34.1217 21.3173 31.5624L21.8319 30.3275L15.042 12.7833H20.9059L24.0944 21.4787C24.479 22.5286 24.694 23.6028 24.8657 24.3597C25.0657 23.5975 25.454 22.3348 25.8423 21.3244L29.1343 12.7836H34.2259V12.7833Z" fill="#4F72B7"/>
<path d="M14.9661 24.7202C14.9661 28.5385 11.4401 30.6362 7.25166 30.6362C4.52603 30.6362 2.32328 30.1802 0 29.248L1.4912 25.6979C2.87288 26.2564 4.86193 26.881 6.48001 26.881C7.74583 26.881 9.51417 26.7257 9.51417 25.1832C9.51417 24.4623 9.06174 24.0912 8.22899 23.845C7.18488 23.5371 5.58316 23.2618 4.52603 22.9706C2.30291 22.3576 0.462787 21.1895 0.462787 17.9277C0.462787 14.3102 3.5467 12.0625 7.7652 12.0625C10.5513 12.0625 12.3203 12.4309 13.8859 12.8859L12.4976 16.4359C11.8067 16.122 9.86677 15.6643 8.48609 15.6643C6.98688 15.6643 5.96581 16.2369 5.96581 17.1561C5.96581 17.6114 6.24895 18.1866 7.04598 18.4428C7.90243 18.7174 9.2544 18.9656 10.3887 19.2144C12.7123 19.7248 14.9661 21.0596 14.9661 24.7202ZM140.861 30.3282H135.717V28.939C134.381 30.1221 132.651 30.6876 130.729 30.6876C127.466 30.6876 125.225 29.1073 125.225 25.7995C125.225 19.984 131.029 19.0818 135.563 19.0597V18.5968C135.563 17.1514 135.016 16.1273 132.427 16.1273C130.678 16.1273 128.688 16.9938 127.385 17.7744L126.048 14.5323C128.365 13.2757 131.24 12.3721 133.968 12.3721C138.154 12.3721 140.861 14.3743 140.861 17.8769V30.3282H140.861ZM135.564 25.6461V22.404C133.039 22.363 130.677 22.6155 130.677 25.0278C130.677 26.5206 131.934 26.9836 132.889 26.9836C134.021 26.9836 134.895 26.4177 135.564 25.6461ZM90.2527 20.9123C90.2527 21.4938 90.2344 22.0937 90.202 22.7137H78.5786C78.6286 25.2647 79.9005 26.7775 83.6185 26.7775C85.2656 26.7775 87.246 26.0286 88.0937 25.44L89.5332 28.6815C87.1321 29.9865 84.545 30.688 81.6645 30.688C76.2152 30.688 72.8208 27.1783 72.8208 21.5813C72.8208 15.8925 77.2707 12.3711 82.0755 12.3711C88.063 12.3715 90.2527 15.8708 90.2527 20.9123ZM84.6475 19.2144C84.7404 17.2807 83.771 16.0755 81.8702 16.0755C80.0344 16.0755 78.9385 17.4243 78.63 19.2144H84.6475ZM72.8311 32.4887C72.8311 37.6061 67.7318 39.9763 62.6989 40C58.2727 40.0221 54.0078 38.7468 54.0078 34.4952C54.0078 32.5061 55.7691 31.176 56.8369 30.4822C56.2453 30.1438 55.706 29.878 55.2422 29.3499C54.7541 28.7947 54.3681 27.9843 54.3681 26.6232C54.3681 24.9079 55.8803 23.3223 57.7108 22.3005C56.6947 21.7664 55.3454 20.9053 55.3454 18.0306C55.3454 14.2911 58.8904 12.3197 63.5226 12.3197C67.4587 12.3197 71.2371 13.2623 71.2371 17.8773C71.2371 22.2858 67.0957 23.8962 62.9046 23.8962C62.1243 23.8962 61.4257 23.7726 60.7446 23.6393C60.2975 23.8778 59.4076 24.469 59.4076 25.1321C59.4076 26.4799 61.2461 26.6756 62.0822 26.6756H66.4022C70.408 26.6753 72.8311 28.6193 72.8311 32.4887ZM65.9387 18.1342C65.9387 16.6634 65.1277 15.4586 63.3166 15.4586C61.6608 15.4586 60.6421 16.8582 60.6421 18.1342C60.6421 19.6059 61.5583 20.8091 63.2134 20.8091C65.0325 20.8091 65.9387 19.6005 65.9387 18.1342ZM67.3792 33.2086C67.3792 31.7782 66.2353 31.2538 65.0649 31.2538H60.2818C59.5532 31.6704 58.4303 32.5833 58.4303 33.7751C58.4303 35.3149 60.5035 36.3471 62.9563 36.3471C65.4953 36.3474 67.3792 35.18 67.3792 33.2086Z" fill="#4F72B7"/>
</svg>
