<svg width="159" height="40" viewBox="0 0 159 40" fill="none" xmlns="http://www.w3.org/2000/svg">
<g clip-path="url(#clip0_494_1151)">
<path d="M56.0767 17.1225H50.759C50.6071 17.1225 50.4805 17.2489 50.4805 17.4005V20.2437C50.4805 20.3953 50.6071 20.5217 50.759 20.5217H55.5196C55.8742 20.5217 56.1654 20.8123 56.1654 21.1661V24.1988C56.1654 24.5526 55.8742 24.8433 55.5196 24.8433H50.759C50.6071 24.8433 50.4805 24.9696 50.4805 25.1213V32.0838C50.4805 32.4376 50.1893 32.7283 49.8347 32.7283H45.9351C45.5806 32.7283 45.2894 32.4376 45.2894 32.0838V13.4517C45.2894 13.0979 45.5806 12.8073 45.9351 12.8073H56.0704C56.4249 12.8073 56.7161 13.0979 56.7161 13.4517V16.4844C56.7161 16.8319 56.4312 17.1225 56.0767 17.1225ZM78.4175 24.281C78.4365 25.3108 78.3352 26.3343 78.1263 27.3452C77.8161 28.6594 77.0944 29.8535 75.9612 30.9339C74.3406 32.4629 72.1755 33.2274 69.4723 33.2274C66.7185 33.2274 64.5661 32.4503 63.0151 30.896C62.1795 30.0494 61.597 28.9816 61.3312 27.8191C61.0906 26.6566 60.983 25.4751 61.0083 24.2873V13.4517C61.0083 13.0979 61.2995 12.8073 61.654 12.8073H65.5537C65.9082 12.8073 66.1994 13.0979 66.1994 13.4517V23.5733C66.1994 24.4389 66.2121 25.0834 66.2437 25.513C66.345 26.8651 66.9591 27.8065 68.0923 28.3372C68.5797 28.5646 69.1052 28.6784 69.6433 28.672C70.9094 28.672 71.8653 28.2298 72.511 27.3452C72.9858 26.6945 73.2264 25.4372 73.2264 23.567V13.4517C73.2264 13.0979 73.5113 12.8073 73.8658 12.8073C73.8658 12.8073 73.8658 12.8073 73.8721 12.8073H77.7654C78.12 12.8073 78.4112 13.0979 78.4112 13.4517L78.4175 24.281ZM97.6246 26.1258C97.6246 29.4934 96.1432 31.6921 93.1805 32.7093C92.1106 33.0758 90.9838 33.259 89.8506 33.2464C87.5589 33.2527 85.3179 32.583 83.406 31.3193C83.1212 31.1424 83.0199 30.7697 83.1718 30.4727L84.7418 27.5221C84.9064 27.2062 85.2926 27.0862 85.6028 27.2505C85.6344 27.2694 85.6724 27.2884 85.7041 27.3136C87.0651 28.3877 88.3946 28.9311 89.705 28.9311C90.3127 28.95 90.9078 28.7921 91.4206 28.4699C91.946 28.154 92.2626 27.579 92.2436 26.9662C92.2436 26.3722 91.9397 25.8858 91.332 25.494C90.8825 25.2034 90.1292 24.9001 89.0656 24.5969C87.7805 24.2178 86.9702 23.9587 86.6347 23.8071C86.1535 23.6112 85.6977 23.3459 85.2862 23.0173C84.2353 22.1391 83.7099 20.8186 83.7099 19.0496C83.7099 17.2047 84.2607 15.6757 85.3622 14.4626C86.6536 13.0347 88.3629 12.3208 90.509 12.3208C92.4905 12.3271 94.453 12.782 96.2382 13.6412C96.5611 13.7929 96.7003 14.172 96.5484 14.4942C96.5421 14.5005 96.5421 14.5131 96.5358 14.5195L95.0924 17.2994C94.9278 17.6153 94.5416 17.7417 94.2251 17.5774C94.2061 17.5648 94.1871 17.5585 94.1681 17.5458C93.3325 16.9646 92.3385 16.6423 91.3193 16.6234C90.7875 16.6234 90.2684 16.775 89.8253 17.0657C89.3632 17.331 89.0783 17.8238 89.0783 18.3546C89.0783 18.879 89.4075 19.3339 90.0595 19.713C90.3571 19.8899 91.2307 20.1931 92.6931 20.6228C94.5289 21.1598 95.8331 21.918 96.6244 22.8973C97.2891 23.7439 97.6246 24.818 97.6246 26.1258ZM107.285 32.7156H102.088V12.8073H107.285V32.7156ZM133.861 22.8278C133.886 25.4561 132.924 27.996 131.158 29.942C129.1 32.2671 126.321 33.4296 122.814 33.4296C119.307 33.4296 116.534 32.2671 114.489 29.942C112.723 27.996 111.755 25.4498 111.786 22.8278C111.799 21.5263 112.046 20.2437 112.514 19.0306C112.951 17.8112 113.616 16.6803 114.464 15.6946C116.522 13.3696 119.301 12.207 122.808 12.207C126.315 12.207 129.094 13.3696 131.152 15.6946C132.924 17.6469 133.893 20.1931 133.861 22.8278ZM128.486 22.8278C128.512 21.4883 128.031 20.1868 127.138 19.1886C125.106 16.8129 121.529 16.5286 119.149 18.5567C117.895 19.6245 117.174 21.1851 117.161 22.8278C117.155 24.1546 117.629 25.4372 118.509 26.4417C119.56 27.7306 121.156 28.4635 122.82 28.4193C125.923 28.4509 128.455 25.9679 128.493 22.8783C128.486 22.8531 128.486 22.8404 128.486 22.8278ZM157.62 32.7156H153.391C153.195 32.7156 153.005 32.6272 152.885 32.4692L144.034 21.1598C143.939 21.0398 143.762 21.0208 143.642 21.1156C143.572 21.1661 143.534 21.2483 143.534 21.3304V32.7156H138.989C138.634 32.7156 138.343 32.425 138.343 32.0712V13.4517C138.343 13.0979 138.634 12.8073 138.989 12.8073H143.218C143.414 12.8073 143.604 12.8957 143.724 13.0537L152.574 24.3631C152.669 24.4831 152.847 24.5021 152.967 24.4073C153.037 24.3568 153.075 24.2746 153.075 24.1862V13.4517C153.075 13.0979 153.366 12.8073 153.72 12.8073H157.62C157.974 12.8073 158.266 13.0979 158.266 13.4517V32.0775C158.259 32.4313 157.974 32.7156 157.62 32.7156Z" fill="#5126D7"/>
<path d="M18.4096 12.9905C12.2309 22.4298 8.43257 35.5399 6.96387 40.0005C6.13455 31.6037 10.528 20.1553 13.7503 13.4012C12.2563 13.4644 4.36831 14.0204 0.00651169 18.5126C0.00651169 18.5126 2.37416 11.3036 15.9913 9.09224L16.0356 9.01011C26.6901 -6.52614 34.692 2.74885 34.692 2.74885C29.8364 1.95277 25.5949 4.36629 21.9928 8.30248C23.74 8.22666 35.1225 8.10662 38.4081 17.072C38.4017 17.0783 31.8052 12.365 18.4096 12.9905ZM26.1077 23.8008C23.3792 23.8008 21.1698 26.0058 21.1698 28.729C21.1698 31.4521 23.3792 33.6571 26.1077 33.6571C28.8362 33.6571 31.0456 31.4521 31.0456 28.729C31.0456 26.0122 28.8362 23.8071 26.1077 23.8008Z" fill="url(#paint0_linear_494_1151)"/>
</g>
<defs>
<linearGradient id="paint0_linear_494_1151" x1="11.5798" y1="2.52026" x2="30.2517" y2="40.7509" gradientUnits="userSpaceOnUse">
<stop stop-color="#5600DB"/>
<stop offset="1" stop-color="#21A9D5"/>
</linearGradient>
<clipPath id="clip0_494_1151">
<rect width="158.266" height="40" fill="white"/>
</clipPath>
</defs>
</svg>
