<svg width="172" height="40" viewBox="0 0 172 40" fill="none" xmlns="http://www.w3.org/2000/svg">
<path fill-rule="evenodd" clip-rule="evenodd" d="M34.0734 31.9578H36.7193L38.5174 36.7184C38.7294 37.2468 38.8349 37.4587 38.9404 37.8835C39.0468 37.5661 39.0468 37.3532 39.2578 36.8248L41.1624 31.9578H43.8083V39.7881H42.1147V34.2853V33.6514C42.1147 33.8624 42.0092 33.9688 41.9028 34.1798L39.7862 39.7881H38.0936L35.8716 34.2853L35.6606 33.6514C35.7661 33.9688 35.7661 33.9688 35.7661 34.2853V39.7881H34.0725V31.9578H34.0734ZM51.0046 33.1211C52.3807 33.1211 53.6505 34.1798 53.6505 35.8734C53.6505 37.3532 52.6982 38.6239 51.0046 38.6239C49.6284 38.6239 49.1 37.8835 48.8881 37.567C48.7826 37.3541 48.4651 36.9312 48.4651 35.9798C48.4651 34.0743 49.7349 33.2266 51.0046 33.1211ZM50.7927 31.745C48.3587 31.8505 46.5596 33.2266 46.5596 35.8734C46.5596 38.3064 48.1468 40 51.0046 40C53.967 40 55.555 38.3064 55.555 35.7679C55.5608 34.8506 55.2631 33.9571 54.7083 33.2266C53.8615 32.0633 52.1688 31.6385 50.7927 31.745ZM57.3541 31.9578H64.5495V33.4376H61.9037V39.7881H59.9991V33.4376H57.3541V31.9578ZM71.1101 33.1211C72.4862 33.1211 73.756 34.1798 73.756 35.8734C73.756 37.3532 72.8037 38.6239 71.1101 38.6239C69.7339 38.6239 69.2055 37.8835 68.9936 37.567C68.8881 37.3541 68.5697 36.9312 68.5697 35.9798C68.5706 34.0743 69.8404 33.2266 71.1101 33.1211ZM70.8991 31.745C68.4651 31.8505 66.6661 33.2266 66.6661 35.8734C66.6661 38.3064 68.2532 40 71.2156 40C74.178 40 75.6606 38.3064 75.6606 35.7679C75.6663 34.8506 75.3686 33.9571 74.8138 33.2266C73.967 32.0633 72.2743 31.6385 70.8991 31.745ZM80.5284 33.3321H83.3853C84.1266 33.3321 84.3376 33.5431 84.4431 33.7569C84.5486 33.9679 84.5486 34.1798 84.5486 34.3908C84.5486 35.2367 83.8083 35.2367 83.4908 35.2367H80.5284V33.3321ZM78.7294 39.7881H80.5284V36.6128H82.645L84.5495 39.7881H86.7716L84.5495 36.5073C84.867 36.5073 85.2908 36.4018 85.7138 36.0844C86.2431 35.6615 86.455 34.9193 86.455 34.2853C86.455 33.8624 86.3486 33.3321 85.9257 32.8037C85.2908 32.0633 84.5495 31.9578 83.7037 31.9578H78.7294V39.7881ZM103.915 37.1413C103.809 37.5661 103.704 38.2 102.963 38.8349C102.433 39.3651 101.482 40 99.5771 40C96.9303 40 95.133 38.6239 95.133 35.8734C95.133 32.9101 97.355 31.745 99.6826 31.745C100.528 31.745 102.963 31.9578 103.915 34.1798L101.905 34.3908C101.694 34.0734 101.059 33.2257 99.6826 33.2257C97.989 33.2257 97.0376 34.3908 97.0376 35.8725C97.0376 37.5661 98.3064 38.6229 99.6826 38.6229C101.27 38.6229 101.799 37.5661 102.01 37.1413H103.915ZM110.899 33.1211C112.381 33.1211 113.65 34.1798 113.65 35.8734C113.65 37.3532 112.698 38.6239 111.005 38.6239C109.628 38.6239 108.995 37.8835 108.888 37.567C108.783 37.3541 108.358 36.9312 108.358 35.9798C108.358 34.0743 109.734 33.2266 110.899 33.1211ZM110.687 31.745C108.358 31.8505 106.559 33.2266 106.559 35.8734C106.559 38.3064 108.04 40 111.005 40C113.967 40 115.554 38.3064 115.554 35.7679C115.56 34.8507 115.263 33.9573 114.708 33.2266C113.861 32.0633 112.168 31.6385 110.687 31.745ZM118.306 31.9578H120.951L122.856 36.7184C123.067 37.2468 123.067 37.4587 123.173 37.8835C123.279 37.5661 123.384 37.3532 123.596 36.8248L125.501 31.9578H128.042V39.7881H126.349V34.2853C126.349 34.0743 126.349 33.8624 126.454 33.6514C126.349 33.8624 126.349 33.9688 126.243 34.1798L124.021 39.7881H122.328L120.211 34.2853C120 33.9679 120 33.9679 120 33.6514V39.7881H118.306V31.9578ZM133.65 33.3321H135.661C136.401 33.3321 136.717 33.3321 136.929 33.5431C137.142 33.756 137.249 33.9679 137.249 34.3908C137.249 35.4477 136.506 35.4477 135.872 35.4477H133.65V33.3321ZM131.851 39.7881H133.65V36.8248H136.19C137.143 36.8248 137.989 36.8248 138.623 35.9789C138.834 35.6615 139.048 35.1312 139.048 34.3917C139.048 33.8633 138.942 33.333 138.728 32.9101C138.094 32.0642 137.142 31.9587 136.295 31.9587H131.851V39.7881ZM146.03 36.9303H143.491L144.548 34.3908C144.655 34.2853 144.655 34.1798 144.761 34.0734V33.756C144.761 33.8615 144.866 33.967 144.866 34.0734C144.866 34.1798 144.972 34.2844 144.972 34.3908L146.03 36.9303ZM140.316 39.7881H142.326L142.856 38.3064H146.665L147.299 39.7881H149.309L145.817 31.9578H143.806L140.316 39.7881ZM151.956 31.9578H153.755L157.353 36.2963C157.882 36.8248 157.882 36.9303 158.412 37.567C158.306 36.8248 158.306 36.6138 158.306 35.9798V31.9587H160V39.789H158.201L154.603 35.3431C154.18 34.9202 154.074 34.7092 153.65 34.1798C153.65 34.8138 153.65 34.9202 153.755 35.4486V39.7881H151.956V31.9578ZM162.856 31.9578H165.078L166.983 34.9202C167.194 35.1312 167.194 35.1312 167.194 35.3431C167.299 35.1321 167.299 35.1321 167.406 35.0257L169.417 31.9578H171.639L168.146 36.8248V39.7881H166.347V36.8248L162.856 31.9578ZM128.782 4.02018C126.983 -0.000920864 127.618 0.422937 123.704 0.316515C123.384 0.210093 122.539 0.210088 121.374 0.210088C120.211 0.210088 120 0.210093 119.047 0.316515C115.343 0.316515 115.977 0.104588 114.708 2.75046C114.708 2.75046 108.358 17.0367 105.607 22.9624L105.502 23.1734C104.973 24.2303 105.291 24.2303 106.136 24.2303H111.85C112.273 24.2303 112.486 24.0193 112.593 23.8073C112.593 23.8073 113.439 22.0083 114.497 19.4688H128.465C129.524 21.9018 130.264 23.7009 130.264 23.8073C130.37 24.1248 130.687 24.2303 131.005 24.2303H136.93C137.778 24.2303 137.989 24.3376 137.672 23.5963C136.612 21.0578 129.735 6.24312 128.782 4.02018ZM116.613 14.3908C118.412 10.1587 120.211 6.03119 120.211 5.92477C120.317 5.71376 120.528 5.60734 120.845 5.60734C120.95 5.50183 121.268 5.50184 121.585 5.50184C121.798 5.50184 122.116 5.50183 122.221 5.60734C122.432 5.60734 122.644 5.71284 122.75 6.03027C123.172 7.19449 124.76 10.7917 126.242 14.3899H116.613V14.3908ZM40.4229 0H34.6028C34.1789 0 34.0734 0.21101 34.0734 0.634864V23.2807C34.0734 23.9147 34.1789 24.0211 34.8147 24.0211H40.3174C40.9514 24.0211 41.0578 23.8101 41.0578 23.2807V0.633947C41.0578 0.211011 40.9514 0 40.4229 0ZM28.6771 0.211005H23.9156C23.2807 0.211005 23.1743 0.422938 23.1743 0.952295V18.9422C23.1743 18.9422 13.545 4.1266 12.3807 2.22202C10.8991 0.105502 10.3706 0.211922 6.24404 0.211922H0.741284C0.106422 0.211922 0 0.423855 0 0.953212V23.4927C0 24.1266 0.106422 24.233 0.741284 24.233H5.50275C6.13762 24.233 6.24404 24.1275 6.24404 23.4927V5.81927C6.24404 5.81927 14.1798 17.9881 16.8257 22.1147C18.0954 24.2312 18.4128 24.2312 22.222 24.2312H28.6771C29.3119 24.2312 29.4184 24.1257 29.4184 23.4908V0.952295C29.4174 0.422938 29.3119 0.211005 28.6771 0.211005ZM169.946 0.211005H165.183C164.55 0.211005 164.443 0.422938 164.443 0.952295V18.9422C164.443 18.9422 154.919 4.1266 153.649 2.22202C152.167 0.105502 151.639 0.211922 147.512 0.211922H142.009C141.375 0.211922 141.269 0.423855 141.269 0.953212V23.4927C141.269 24.1266 141.374 24.233 142.009 24.233H146.772C147.406 24.233 147.512 24.1275 147.512 23.4927V5.81927C147.512 5.81927 155.448 17.9881 158.094 22.1147C159.363 24.2312 159.682 24.2312 163.49 24.2312H169.946C170.58 24.2312 170.686 24.1257 170.686 23.4908V0.952295C170.686 0.422938 170.581 0.211005 169.946 0.211005ZM64.655 9.41743C62.3275 9.20642 56.0844 8.67614 54.0734 8.46514C53.3321 8.35871 53.0156 7.93578 53.0156 7.40734V6.87798V6.45504C53.1211 5.71376 53.4385 5.39633 54.1798 5.39633H71.111C71.7459 5.50275 71.9578 5.29083 71.9578 4.76147V0.845869C71.9578 0.316511 71.7468 0.211005 71.111 0.211005H53.8615C49.4174 0.211005 46.8771 1.79817 46.1367 5.1844C46.0312 5.92477 46.0312 6.87706 46.0312 7.51284C46.0312 8.25412 46.0312 9.1 46.1367 9.73486C46.3477 11.6404 47.6174 13.8624 52.8037 14.3908C56.8248 14.8138 62.7505 15.344 64.7615 15.4495C65.7138 15.555 65.8193 16.1899 65.9257 16.6147V18.2C65.8193 18.7303 65.6073 18.9422 64.867 18.9422H46.878C46.2431 18.9422 46.1376 19.0477 46.1376 19.6826V23.4917C46.1376 24.1257 46.2431 24.2321 46.878 24.2321H64.655C69.1 24.2321 71.9569 23.4917 72.6982 19.6826C72.9092 18.8367 72.9092 17.8835 72.9092 17.1431C72.9092 15.978 72.8037 14.9211 72.8037 14.6028C71.9569 10.5817 68.8881 9.84037 64.655 9.41743ZM95.2385 9.41743C92.9092 9.20642 86.6661 8.67614 84.656 8.46514C83.8092 8.35871 83.5973 7.93578 83.5973 7.40734V6.87798V6.45504C83.7037 5.71376 84.0211 5.39633 84.7615 5.39633H101.693C102.327 5.50275 102.539 5.29083 102.539 4.76147V0.845869C102.539 0.316511 102.328 0.211005 101.693 0.211005H84.4431C79.9991 0.211005 77.4596 1.79817 76.7184 5.1844C76.6128 5.92477 76.6129 6.87706 76.6129 7.51284C76.6129 8.25412 76.6128 9.1 76.7184 9.73486C77.0358 11.6404 78.2 13.8624 83.3853 14.3908C87.4055 14.8138 93.333 15.344 95.344 15.4495C96.1899 15.555 96.4009 16.1899 96.5073 16.6147V18.2C96.4018 18.7303 96.1899 18.9422 95.4505 18.9422H77.4606C76.8257 18.9422 76.7193 19.0477 76.7193 19.6826V23.4917C76.7193 24.1257 76.8248 24.2321 77.4606 24.2321H95.2385C99.6826 24.2321 102.539 23.4917 103.281 19.6826C103.492 18.8367 103.492 17.8835 103.492 17.1431C103.492 15.978 103.386 14.9211 103.386 14.6028C102.539 10.5817 99.4706 9.84037 95.2385 9.41743Z" fill="#B52D4C"/>
</svg>
