<svg width="191" height="30" viewBox="0 0 191 30" fill="none" xmlns="http://www.w3.org/2000/svg">
<path d="M21.1844 20.6638C19.6756 22.8012 17.2219 24.0683 14.6157 24.0607C9.95211 24.0607 6.43153 20.5188 6.43153 15.8242C6.43153 13.4731 7.28501 11.3509 8.83193 9.84715C10.3331 8.38915 12.3906 7.58764 14.6157 7.58764C17.2295 7.58 19.6832 8.8548 21.1844 10.9922L21.4283 11.3357L26.2824 7.2136L26.0386 6.92352C23.1962 3.54952 19.0126 1.60299 14.6081 1.61825C6.55346 1.61062 0 7.98458 0 15.8242C0 23.6485 6.55346 29.9995 14.6081 29.9995C19.005 30.0224 23.1886 28.0912 26.0309 24.7324L26.2748 24.4424L21.4207 20.3203L21.1844 20.6638Z" fill="#E23A05"/>
<path d="M49.7377 0.419922V29.3127H44.3807V28.0455C42.6966 29.0379 40.5172 29.6562 38.3378 29.6562C32.5616 29.6562 27.8217 25.2898 27.8217 18.893C27.8217 12.3816 32.5616 8.12974 38.3378 8.12974C40.4562 8.13737 42.5289 8.67935 44.3807 9.70987V0.419922H49.7377ZM44.3807 23.0303V14.6716C43.1157 13.6029 41.3249 12.9083 39.2979 12.9083C35.7392 12.9083 33.1026 15.4732 33.1026 18.8853C33.1026 22.412 35.7392 24.8242 39.2979 24.8242C41.2868 24.8242 43.1233 24.1372 44.3807 23.0303ZM54.3175 10.1831H59.6365V29.3127H54.3175V10.1831ZM65.146 23.6791C67.7064 24.7936 69.6572 25.3661 72.2633 25.3661C74.7094 25.3661 75.6696 24.4501 75.6696 23.3738C75.6696 22.183 74.4808 21.6486 71.2727 20.9616C66.792 19.9693 63.5457 18.5113 63.5457 14.4884C63.5457 10.7328 66.6472 8.12974 71.4632 8.12974C74.7171 8.12974 77.3156 8.89309 79.5712 9.81674L77.8109 13.7251C75.7839 12.9617 73.414 12.3816 71.3489 12.3816C69.3219 12.3816 68.2932 13.1068 68.2932 14.2213C68.2932 15.3739 69.5581 15.9083 72.8806 16.5953C77.6966 17.5953 80.4933 19.2746 80.4933 23.0685C80.4933 27.015 77.468 29.618 72.1567 29.618C68.5599 29.618 66.2281 29.1218 63.1723 27.6257L65.146 23.6791ZM102.165 25.4425C100.291 28.0073 97.3494 29.618 94.1336 29.618C87.8621 29.618 82.7717 24.8318 82.7717 18.893C82.7717 12.9159 87.8545 8.12974 94.1336 8.12974C97.4637 8.12974 100.367 9.74041 102.242 12.2671L98.7972 15.4503C97.7608 13.8854 96.0082 12.9388 94.1336 12.9236C90.7654 12.9236 88.0145 15.6029 88.0145 18.9006C88.0145 22.1601 90.7654 24.8394 94.1336 24.8394C96.0234 24.8242 97.7761 23.8623 98.7972 22.2746L102.165 25.4425ZM126.482 18.8853C126.482 24.8242 121.399 29.6104 115.12 29.6104C108.841 29.6104 103.758 24.8242 103.758 18.8853C103.758 12.9083 108.841 8.12211 115.12 8.12211C121.399 8.12211 126.482 12.9083 126.482 18.8853ZM121.247 18.8853C121.247 15.5877 118.534 12.9083 115.128 12.9083C111.759 12.9083 109.008 15.5877 109.008 18.8853C109.008 22.1448 111.759 24.8242 115.128 24.8242C118.526 24.8242 121.247 22.1448 121.247 18.8853ZM149.503 8.67935V29.3127H144.184V27.931C142.606 29.0073 140.663 29.618 138.522 29.618C132.441 29.618 129.644 26.786 129.644 20.038V8.67935H134.963V20.038C134.963 23.2593 136.541 24.8242 139.474 24.8242C141.387 24.8242 142.957 24.2135 144.176 23.1753V8.67172H149.503V8.67935ZM173.636 17.7021V29.3127H168.317V17.7021C168.317 14.4808 166.74 12.9159 163.806 12.9159C161.931 12.9159 160.4 13.5266 159.219 14.5648V29.3127H153.9V8.50378H159.219V9.80911C160.75 8.73279 162.663 8.12211 164.766 8.12211C170.84 8.12211 173.636 10.9618 173.636 17.7021ZM184.487 12.9083V20.267C184.487 23.9845 185.097 25.0532 187.779 25.0532C188.694 25.0532 189.502 24.9387 190.226 24.8623V28.847C189.997 28.9233 188.389 29.6104 185.41 29.6104C181.927 29.6104 179.138 27.4272 179.138 23.0608V12.9083H176.197V8.50378H179.138V0.419922H184.495V8.50378H190.302V12.9083H184.487Z" fill="#293847"/>
<path d="M54.1116 3.14499C54.1116 1.41983 55.4832 0 57.1673 0C58.8514 0 60.1926 1.41983 60.1926 3.14499C60.1926 4.87016 58.8514 6.25182 57.1673 6.25182C55.468 6.23656 54.0963 4.84726 54.1116 3.14499Z" fill="#E23A05"/>
</svg>
