<svg width="163" height="40" viewBox="0 0 163 40" fill="none" xmlns="http://www.w3.org/2000/svg">
<path d="M19.9764 0C8.94632 0 6.10352e-05 8.95683 6.10352e-05 20C6.10352e-05 31.0432 8.94632 40 19.9764 40C31.0066 40 39.9528 31.0432 39.9528 20C39.9408 8.95683 31.0066 0 19.9764 0ZM20.0723 31.4388C22.5274 28.693 24.9945 24.94 24.3478 21.8705C23.8208 18.753 21.5094 17.7338 19.9645 17.7578C18.4195 17.7338 16.1081 18.753 15.5812 21.8705C14.9344 24.94 17.4015 28.693 19.8567 31.4388C12.0841 31.3549 5.82052 25.024 5.82052 17.2302C5.82052 9.3765 12.1799 3.02158 20.0124 3.02158C27.8568 3.02158 34.2162 9.3765 34.2162 17.2302C34.2282 25.06 27.8927 31.4149 20.0723 31.4388ZM101.702 31.9664C98.6843 31.9664 95.81 31.211 94.0136 29.9161C91.7261 28.3094 90.4806 25.2758 90.4806 21.4149C90.4806 14.1487 94.0136 10.6475 101.379 10.6475C108.732 10.6475 112.277 14.1847 112.277 21.5707C112.265 28.3933 108.661 31.9664 101.702 31.9664ZM101.403 14.1847C97.4029 14.1847 95.6783 16.3309 95.6783 21.259C95.6424 26.187 97.4747 28.4293 101.439 28.4293C105.343 28.4293 107.104 26.187 107.104 21.235C107.104 16.3909 105.319 14.1847 101.403 14.1847ZM126.218 27.8417C123.331 27.8417 122.385 27.6619 121.595 27.0024C120.84 26.3429 120.637 25.8873 120.541 23.8489V13.3573C120.529 12.2902 119.643 11.4269 118.529 11.4029H115.87V22.6619C115.87 26.1631 116.218 27.7218 117.415 29.1007C118.769 30.6954 120.781 31.4029 123.954 31.4029H130.242V27.8297L126.218 27.8417ZM154.039 11.4149H150.877C149.655 11.4388 148.613 12.1463 148.146 13.1655L140.23 31.4149H143.44C144.685 31.4029 145.763 30.6835 146.218 29.6523L147.464 26.7746H155.44L156.697 29.6882C157.164 30.7074 158.23 31.4149 159.464 31.4269H162.697L154.039 11.4149ZM148.47 23.2254L151.452 16.211L154.434 23.2254H148.47ZM135.188 11.4149C134.086 11.4388 133.2 12.2902 133.176 13.3453V31.4149H135.775C136.877 31.4029 137.787 30.5516 137.799 29.4964V11.4149H135.188ZM65.1508 11.4388C63.9293 11.4628 62.8754 12.1823 62.4203 13.1894L57.522 25.5036L52.2764 13.2134C51.8213 12.1823 50.7674 11.4628 49.5218 11.4388H46.3242L55.1627 31.4388H57.7016C58.8992 31.4149 59.9292 30.7314 60.3963 29.7482L68.6599 11.4388H65.1508ZM75.7139 17.2062C76.4923 15.6235 78.0852 15.024 80.9954 14.988H87.0913V11.4149H79.163C77.8936 11.4149 76.9115 11.4988 76.0852 11.7026C76.0852 11.7026 76.0612 11.7026 76.0492 11.7146C75.4504 11.8585 74.9474 12.0623 74.4803 12.3141C73.3067 12.9017 72.66 13.5971 72.66 13.5971C71.9414 14.3046 71.3306 15.2038 70.8755 16.247C70.1689 17.6859 69.8455 19.2926 69.8455 21.247V21.5707C69.8455 23.5372 70.1689 25.1319 70.8755 26.5827C71.3545 27.6739 71.9893 28.6091 72.7677 29.3405C72.7677 29.3405 73.1869 29.7242 73.4145 29.8921C73.9893 30.3237 74.5761 30.6115 75.0432 30.7914C75.2348 30.8753 75.4384 30.9472 75.654 31.0072C75.8576 31.0671 75.9893 31.1031 75.9893 31.1031C76.8277 31.307 77.8457 31.4149 79.163 31.4149H87.0913V27.8537H80.9954C78.0852 27.8177 76.4923 27.2302 75.7139 25.6355C75.4145 25.024 75.2348 24.2566 75.151 23.3213V23.1415H86.5883V19.7002H75.151V19.5204C75.2348 18.5731 75.4145 17.8177 75.7139 17.2062Z" fill="#ED1D24"/>
</svg>
