<svg width="219" height="40" viewBox="0 0 219 40" fill="none" xmlns="http://www.w3.org/2000/svg">
<path d="M90.3121 10.6301C88.6596 9.71942 86.2027 9.27639 82.8007 9.2751C78.146 9.27682 73.825 10.2444 72.1896 10.855C71.8205 10.9737 71.4254 11.2931 71.419 11.8397L71.4201 11.9602L71.8781 14.2798L71.8896 14.3229C72.0329 14.7953 72.4256 15.0068 72.7829 15.0068H72.7848C72.8998 15.0021 72.9893 14.9799 73.0729 14.9585L73.8476 14.7774C75.8752 14.2688 78.9399 13.5005 82.3622 13.5005C84.4382 13.5005 85.8336 13.6816 86.7693 14.0777C88.2872 14.6535 88.2966 15.6367 88.3121 17.264V19.6983C88.1382 19.6953 87.8446 19.6921 87.3927 19.6921C85.7167 19.6921 82.4207 19.7701 79.1795 20.2908C74.2334 21.052 70.1407 22.2381 70.1666 29.0666C70.1683 37.735 78.1925 37.7514 82.0486 37.7595H82.049C84.6668 37.7589 87.0821 37.3715 88.6593 37.0448C92.2594 36.2072 93.1782 35.0621 93.1302 31.478V17.0637C93.1347 14.8654 93.1414 12.1293 90.3121 10.6301ZM88.3356 32.8966C86.4199 33.5197 84.3235 33.8353 82.1035 33.8353V34.0376L82.1007 33.8353C78.5533 33.8079 75.0888 33.4013 75.0843 28.8675C75.1071 25.2616 77.0273 24.8324 79.4578 24.2886L79.6264 24.2511C81.7887 23.7882 87.2164 23.7011 88.336 23.6884L88.3356 32.8966ZM133.242 17.0637V31.4778C133.29 35.0617 132.371 36.207 128.771 37.0445C127.194 37.3715 124.778 37.7587 122.16 37.7593H122.16C118.304 37.7511 110.28 37.735 110.278 29.0664C110.252 22.2381 114.345 21.0518 119.291 20.2906C122.532 19.7699 125.828 19.6918 127.504 19.6918C127.956 19.6918 128.25 19.6951 128.424 19.6981V17.264C128.408 15.6367 128.399 14.6535 126.881 14.0777C125.945 13.6819 124.55 13.5005 122.474 13.5005C119.051 13.5005 115.987 14.2688 113.959 14.7774L113.184 14.9585C113.101 14.9799 113.011 15.0021 112.896 15.0068H112.895C112.537 15.0068 112.145 14.795 112.001 14.3229L111.99 14.2798L111.531 11.9602L111.531 11.8397C111.537 11.2931 111.932 10.9737 112.301 10.855C113.936 10.2444 118.257 9.27704 122.912 9.2751C126.314 9.27618 128.771 9.71942 130.424 10.6298C133.253 12.1293 133.247 14.8654 133.242 17.0637ZM128.448 23.6879C127.328 23.7009 121.901 23.7878 119.738 24.2507L119.57 24.2882C117.14 24.832 115.219 25.2614 115.197 28.8671C115.201 33.4011 118.665 33.8075 122.213 33.8349L122.216 34.0372V33.8349C124.436 33.8349 126.532 33.5193 128.448 32.8962L128.448 23.6879ZM205.902 9.27532C194.727 9.29041 193.779 16.6472 193.769 23.5428C193.779 30.4134 194.727 37.7442 205.902 37.7593H205.903C217.069 37.7442 218.02 30.433 218.036 23.5419C218.025 16.3312 217.077 9.2902 205.902 9.27532ZM205.902 33.7346C199.125 33.7046 198.784 30.2186 198.738 23.5441C198.784 16.8329 199.124 13.3292 205.901 13.2997C212.681 13.3292 213.02 16.8329 213.067 23.541C213.02 30.2186 212.68 33.7046 205.902 33.7346ZM185.847 36.7445L185.556 36.8187C183.993 37.2158 181.852 37.7593 178.099 37.7593H178.091C167.749 37.7442 165.719 32.5168 165.708 23.4925C165.721 13.142 168.995 9.28912 177.79 9.2751C180.892 9.2751 183.03 9.67715 184.564 10.0481L184.555 1.71128C184.542 1.34569 184.707 0.866858 185.571 0.701855L188.318 0H188.468C189.099 0.0157454 189.322 0.579343 189.323 1.05688V32.3815C189.365 34.3596 189.133 36.0569 185.847 36.7445ZM184.557 14.0604C183.64 13.8268 181.08 13.2494 178.197 13.2494C172.902 13.2981 170.681 14.7394 170.626 23.5436C170.688 33.2113 173.561 33.7341 178.244 33.7846L178.247 33.9871V33.7846C181.162 33.7846 183.663 33.1759 184.555 32.9296L184.557 14.0604ZM159.871 37.1062H157.415C156.756 37.1049 156.26 36.6071 156.259 35.9478V17.3646C156.214 14.2211 155.277 13.3469 151.898 13.2997C148.076 13.2997 144.207 14.2606 142.931 14.6089V35.9475C142.93 36.6181 142.465 37.1054 141.826 37.1064H139.319C138.661 37.1051 138.164 36.6073 138.163 35.948V15.1046C138.126 13.1754 138.307 11.8418 141.046 10.9536C143.668 10.0464 148.687 9.27726 152.001 9.27532C158.319 9.2833 161.018 11.567 161.026 16.9123V35.9473C161.025 36.6071 160.528 37.1051 159.871 37.1062ZM104.226 37.6083H104.228C105.64 37.5805 106.684 37.3008 107.093 36.8407C107.238 36.6776 107.305 36.4893 107.287 36.3036C107.278 36.1507 107.278 36.1507 106.89 34.3327L106.881 34.2891C106.797 33.8139 106.459 33.5978 106.18 33.5978C106.153 33.5978 106.128 33.5993 106.142 33.6013C106.142 33.6013 105.787 33.584 105.437 33.584H105.433C104.427 33.5521 103.593 33.4052 103.576 31.9294V1.05731C103.575 0.54246 103.265 0.0144512 102.67 0.000215687L102.495 0.00172552L99.7433 0.708326C99.2745 0.756425 98.7865 1.09031 98.8074 1.71085V32.0304C98.8125 35.6208 100.736 37.6017 104.223 37.6083H104.226ZM65.3636 37.1062H45.6496C44.9913 37.1049 44.4945 36.6071 44.4932 35.9478V33.5363C44.4799 32.9456 44.6687 32.6822 45.032 32.2312L60.7235 13.9526H45.3491C44.6906 13.951 44.1938 13.4532 44.1929 12.7943V11.0865C44.1938 10.4273 44.6906 9.9295 45.3487 9.92821H65.2633C65.9211 9.9295 66.4179 10.4273 66.4192 11.0862V13.5475C66.4287 13.9922 66.2748 14.3697 65.9205 14.7655L50.1896 33.0812H65.3634C66.0214 33.0832 66.5183 33.5806 66.5196 34.2397V35.9473C66.5183 36.6071 66.0212 37.1051 65.3636 37.1062Z" fill="#231F20"/>
<path d="M4.99178 6.88184C1.58478 6.88184 -0.167261 16.2033 0.0152838 24.9549C0.010548 24.9536 0.00473583 24.9562 0 24.9549C0.182114 32.6363 1.87754 39.9989 5.23804 39.9989C18.1348 39.9989 32.8288 27.8128 32.8288 23.4442C32.8288 22.3516 31.7178 20.2488 30.229 18.5888C30.2269 18.5899 30.2232 18.5878 30.2213 18.5888C30.1199 18.4711 30.0127 18.3537 29.9059 18.2342C25.3117 13.0982 15.7806 6.88184 4.99178 6.88184Z" fill="url(#paint0_linear_494_1184)"/>
<path d="M0.0129452 24.9556C9.70288 27.2356 20.0477 24.6692 30.07 18.684C30.1203 18.6538 30.1709 18.6236 30.2213 18.5929C30.1199 18.4752 30.0164 18.3566 29.9096 18.2373C25.3154 13.1015 15.7785 6.88379 4.98987 6.88379C1.58287 6.88379 -0.1696 16.2044 0.0129452 24.9556ZM30.2213 18.5932C30.2237 18.5923 30.2254 18.591 30.2271 18.5897L30.2213 18.5932Z" fill="url(#paint1_linear_494_1184)"/>
<path d="M0.00299072 24.9526C0.18532 32.6339 1.88118 39.9995 5.24168 39.9995C18.1384 39.9995 32.8311 27.8167 32.8311 23.4484C32.8311 22.3557 31.716 20.2488 30.2273 18.5889C20.1531 24.6429 9.74696 27.2486 0.00299072 24.9526Z" fill="url(#paint2_linear_494_1184)"/>
<defs>
<linearGradient id="paint0_linear_494_1184" x1="25.7282" y1="44.0939" x2="3.16751" y2="5.09467" gradientUnits="userSpaceOnUse">
<stop stop-color="#F47026"/>
<stop offset="0.375" stop-color="#F47026"/>
<stop offset="0.949" stop-color="#FBC195"/>
<stop offset="1" stop-color="#FBC195"/>
</linearGradient>
<linearGradient id="paint1_linear_494_1184" x1="27.4442" y1="43.1025" x2="4.88353" y2="4.10329" gradientUnits="userSpaceOnUse">
<stop stop-color="#F47026"/>
<stop offset="0.375" stop-color="#F47026"/>
<stop offset="0.949" stop-color="#FBC195"/>
<stop offset="1" stop-color="#FBC195"/>
</linearGradient>
<linearGradient id="paint2_linear_494_1184" x1="0.0339694" y1="29.33" x2="32.8619" y2="29.33" gradientUnits="userSpaceOnUse">
<stop stop-color="#F57D34"/>
<stop offset="0.534" stop-color="#F47026"/>
<stop offset="1" stop-color="#F47026"/>
</linearGradient>
</defs>
</svg>
